<svg width="32" height="32" viewBox="0 0 32 32" fill="none" xmlns="http://www.w3.org/2000/svg">
<rect width="32" height="32" rx="7" fill="#0a0a0a"/>
<g transform="translate(4, 3) scale(0.0923)">
  <path fill-rule="evenodd" clip-rule="evenodd" d="M108.013 5.87936C121.62 -1.95979 138.38 -1.95978 151.987 5.87936L237.988 55.4243C251.609 63.2712 260 77.7805 260 93.4829V192.517C260 208.219 251.608 222.728 237.987 230.575L151.987 280.121C138.38 287.96 121.62 287.96 108.013 280.121L22.0117 230.575C8.39157 222.728 0.000135377 208.219 0 192.517V93.4829C0 77.7804 8.39217 63.2712 22.0127 55.4243L108.013 5.87936ZM136.603 23.6196C131.652 20.7615 125.553 20.7615 120.603 23.6196L54 62.0717C48.6668 65.1509 48.6669 72.8489 54 75.9282L142.342 126.931C147.292 129.789 150.342 135.072 150.342 140.788V242.792C150.342 248.951 157.009 252.8 162.342 249.721L228.944 211.268C233.895 208.41 236.944 203.127 236.944 197.411L236.94 90.7866C236.94 85.0706 233.891 79.7892 228.94 76.9311L136.603 23.6196ZM175.32 185C177.233 183.896 178.784 184.791 178.784 187V203.429C178.784 204.296 179.478 204.573 180.009 204.879C180.54 205.186 181.126 205.649 181.877 205.215L196.104 197C198.018 195.896 199.569 196.791 199.569 199V215C199.569 217.21 198.018 219.896 196.104 221L182.249 229C180.336 230.105 178.784 229.209 178.784 227V210.572C178.784 209.704 178.091 209.428 177.56 209.122C177.028 208.815 176.443 208.352 175.692 208.786L161.464 217C159.551 218.105 158 217.209 158 215V199C158 196.791 159.551 194.105 161.464 193L175.32 185Z" fill="white"/>
</g>
</svg>
